<svg width="17" height="17" viewBox="0 0 17 17" fill="none" xmlns="http://www.w3.org/2000/svg">
<path d="M8.39563 10.7944C9.06194 10.7944 9.62832 10.5612 10.0947 10.0947C10.5612 9.62832 10.7944 9.06194 10.7944 8.39563C10.7944 7.72931 10.5612 7.16293 10.0947 6.69651C9.62832 6.23009 9.06194 5.99687 8.39563 5.99687C7.72931 5.99687 7.16293 6.23009 6.69651 6.69651C6.23009 7.16293 5.99687 7.72931 5.99687 8.39563C5.99687 9.06194 6.23009 9.62832 6.69651 10.0947C7.16293 10.5612 7.72931 10.7944 8.39563 10.7944ZM8.39563 11.594C7.50489 11.594 6.74902 11.2837 6.12801 10.6632C5.507 10.0428 5.19676 9.28689 5.19729 8.39563C5.19729 7.50489 5.50753 6.74902 6.12801 6.12801C6.74848 5.507 7.50436 5.19676 8.39563 5.19729C9.28636 5.19729 10.0422 5.50753 10.6632 6.12801C11.2843 6.74848 11.5945 7.50436 11.594 8.39563C11.594 9.28636 11.2837 10.0422 10.6632 10.6632C10.0428 11.2843 9.28689 11.5945 8.39563 11.594ZM2.79854 8.79542H0V7.99583H2.79854V8.79542ZM16.7913 8.79542H13.9927V7.99583H16.7913V8.79542ZM7.99583 2.79854V0H8.79542V2.79854H7.99583ZM7.99583 16.7913V13.9927H8.79542V16.7913H7.99583ZM4.19461 4.72074L2.46751 3.04321L3.02322 2.44832L4.71114 4.15463L4.19461 4.72074ZM13.7688 14.3429L12.0761 12.6318L12.5974 12.0705L14.3245 13.748L13.7688 14.3429ZM12.0705 4.19461L13.748 2.46751L14.3429 3.02322L12.6366 4.71114L12.0705 4.19461ZM2.44832 13.7688L4.15943 12.0761L4.68956 12.5974L3.02802 14.3397L2.44832 13.7688Z" fill="#2E2E38"/>
</svg>
